# xmcd
#
# Track frame offsets: 
#        150
#        20396
#        50804
#        65859
#        82135
#        106517
#        123527
#        152556
#        166594
#        180958
#        195926
#        212807
#        228180
#        257215
#        274400
#        291260
#        309782
#        325971
#
# Disc length: 4737 seconds
#
# Revision: 0
# Processed by: cddbd v1.5.2PL0 Copyright (c) Steve Scherf et al.
# Submitted via: ExactAudioCopy v1.0b3
#
DISCID=f7127f12
DTITLE=Various Artist - Terrorbeat Vol. 1 - CD 1
DYEAR=1900
DGENRE=
TTITLE0=Joy Kitikonti - PornoJoy
TTITLE1=Barbarez Feat. Mike Rossi - Get Up And Dance (Hard Club Mix)
TTITLE2=Jens O. - Man On The Mic (Radio Edit)
TTITLE3=Nightbass DJ Team - Overdrive (Radio Mix)
TTITLE4=Sven-R-G Vs. Bass-T - The Sign (Club Mix)
TTITLE5=Rocket Base - House Bee (Full Loaded Edit)
TTITLE6=Trackhackers - Oops Up (2 DJ's and One Rmx)
TTITLE7=4Clubbers - Why Don't You Dance With Me? (Radio Edit)
TTITLE8=E-Wok - For The Crowd (Short Mix)
TTITLE9=Dave Joy - Third Pleasure (Original Re-Mix Edit)
TTITLE10=DJ R. Fishbone - Exploring (Blutonium Boy Short Cut)
TTITLE11=First Wave - Rock Da House (Radio Edit)
TTITLE12=DJ Balloon - R U Ready (Dickheads Rmx)
TTITLE13=CK and Mikuma - Planet Rock (Club Cut)
TTITLE14=Resident DJ - Are You Ready (Basskick Radio Edit)
TTITLE15=Bosa System - Raw Bass (Sam Punk Main Club Cut)
TTITLE16=Club Baby - Babycore (Code Red Mix Edit)
TTITLE17=Terence - The Sequence Of Sunrise (Pit Bailay Rmx)
EXTD=
EXTT0=
EXTT1=
EXTT2=
EXTT3=
EXTT4=
EXTT5=
EXTT6=
EXTT7=
EXTT8=
EXTT9=
EXTT10=
EXTT11=
EXTT12=
EXTT13=
EXTT14=
EXTT15=
EXTT16=
EXTT17=
PLAYORDER=
